<svg xmlns="http://www.w3.org/2000/svg" viewBox="0 0 64 64" fill="none">
  <defs>
    <linearGradient id="grad1" x1="0%" y1="0%" x2="100%" y2="100%">
      <stop offset="0%" style="stop-color:#3B82F6;stop-opacity:1" />
      <stop offset="100%" style="stop-color:#8B5CF6;stop-opacity:1" />
    </linearGradient>
  </defs>
  
  <!-- Background circle -->
  <circle cx="32" cy="32" r="30" fill="url(#grad1)"/>
  
  <!-- Books -->
  <rect x="12" y="20" width="6" height="24" fill="#FFF" opacity="0.9" rx="1"/>
  <rect x="20" y="18" width="6" height="26" fill="#FFF" opacity="0.8" rx="1"/>
  <rect x="28" y="22" width="6" height="22" fill="#FFF" opacity="0.9" rx="1"/>
  <rect x="36" y="16" width="6" height="28" fill="#FFF" opacity="0.8" rx="1"/>
  <rect x="44" y="24" width="6" height="20" fill="#FFF" opacity="0.9" rx="1"/>
  
  <!-- Book details/lines -->
  <rect x="14" y="25" width="2" height="1" fill="#3B82F6" opacity="0.6"/>
  <rect x="14" y="28" width="2" height="1" fill="#3B82F6" opacity="0.6"/>
  <rect x="22" y="23" width="2" height="1" fill="#8B5CF6" opacity="0.6"/>
  <rect x="22" y="26" width="2" height="1" fill="#8B5CF6" opacity="0.6"/>
  <rect x="30" y="27" width="2" height="1" fill="#3B82F6" opacity="0.6"/>
  <rect x="30" y="30" width="2" height="1" fill="#3B82F6" opacity="0.6"/>
  <rect x="38" y="21" width="2" height="1" fill="#8B5CF6" opacity="0.6"/>
  <rect x="38" y="24" width="2" height="1" fill="#8B5CF6" opacity="0.6"/>
  <rect x="46" y="29" width="2" height="1" fill="#3B82F6" opacity="0.6"/>
  <rect x="46" y="32" width="2" height="1" fill="#3B82F6" opacity="0.6"/>
  
  <!-- Shelf -->
  <rect x="10" y="44" width="44" height="2" fill="#FFF" opacity="0.3" rx="1"/>
</svg>